<?xml version="1.0" encoding="iso-8859-1"?>
<!-- Generator: Adobe Illustrator 18.0.0, SVG Export Plug-In . SVG Version: 6.00 Build 0)  -->
<!DOCTYPE svg PUBLIC "-//W3C//DTD SVG 1.1//EN" "http://www.w3.org/Graphics/SVG/1.1/DTD/svg11.dtd">
<svg version="1.1" id="Capa_1" xmlns="http://www.w3.org/2000/svg" xmlns:xlink="http://www.w3.org/1999/xlink" x="0px" y="0px"
	 viewBox="0 0 221.364 221.364" style="enable-background:new 0 0 221.364 221.364;" xml:space="preserve">
<g>
	<path d="M64.975,76.79c17.169,39.798,55.537,50.183,89.389,59.346c21.604,5.848,42.28,11.455,55.225,24.188
		c26.365-52.43,7.139-116.864-44.517-146.016C134.257-3.083,98.659-4.104,68.315,8.445C62.119,18.629,50.798,43.927,64.975,76.79z"
		/>
	<path d="M40.907,150.989c-26.881-29.032-31.336-61.91-30.34-84.379c0.052-1.182,0.125-2.356,0.21-3.525
		C-14.087,115.137,5.3,178.287,56.289,207.063c7.031,3.968,14.312,7.075,21.721,9.372C75.664,202.415,67.36,179.559,40.907,150.989z
		"/>
	<path d="M150.445,150.614c-35.288-9.551-79.206-21.438-99.243-67.883c-10.881-25.224-9.104-46.854-4.385-62.45
		c-5.143,3.628-10.006,7.719-14.523,12.255c-2.398,6.555-6.277,19.944-6.796,36.187c-0.892,27.931,7.996,52.18,26.416,72.074
		c32.28,34.863,40.293,62.883,41.692,79.251c41.01,6.396,83.405-10.795,107.957-46.218
		C192.095,161.896,172.578,156.605,150.445,150.614z"/>
</g>
<g>
</g>
<g>
</g>
<g>
</g>
<g>
</g>
<g>
</g>
<g>
</g>
<g>
</g>
<g>
</g>
<g>
</g>
<g>
</g>
<g>
</g>
<g>
</g>
<g>
</g>
<g>
</g>
<g>
</g>
</svg>
