<?xml version="1.0" encoding="iso-8859-1"?>
<!-- Generator: Adobe Illustrator 19.0.0, SVG Export Plug-In . SVG Version: 6.00 Build 0)  -->
<svg version="1.1" id="Layer_1" xmlns="http://www.w3.org/2000/svg" xmlns:xlink="http://www.w3.org/1999/xlink" x="0px" y="0px"
	 viewBox="0 0 455 455" style="enable-background:new 0 0 455 455;" xml:space="preserve">
<g>
	<path d="M14.341,307.524c17.322,46.085,49.158,85.062,89.954,111.348V348L63.82,307.524H14.341z"/>
	<path d="M227.351,50c24.743,0,46.023-18.435,49.499-42.88l0.235-1.652C261.076,1.897,244.436,0,227.351,0
		s-33.725,1.897-49.734,5.468l0.235,1.652C181.328,31.565,202.608,50,227.351,50z"/>
	<path d="M79.91,123.449h15c6.309,0,11.441-5.132,11.441-11.441s-5.133-11.441-11.441-11.441H38.53
		C16.154,133.789,2.31,173.234,0.149,215.764H79.91V123.449z"/>
	<path d="M201.772,304.337c0-34.367,27.959-62.326,62.326-62.326h103.485v-30H243.772v-90h54.258
		c0.177-18.21,14.28-34.792,32.254-37.836l1.244-0.21h15.754V34.162c-12.919-8.031-26.696-14.811-41.171-20.153
		c-3.164,17.861-12.355,34.191-26.102,46.218C265.435,72.978,246.734,80,227.351,80s-38.084-7.022-52.657-19.773
		C160.946,48.2,151.755,31.87,148.592,14.009c-32.895,12.14-62.217,31.659-85.948,56.558H94.91c22.851,0,41.441,18.59,41.441,41.441
		c0,17.563-10.983,32.61-26.441,38.633v95.123H0.582c0.859,10.818,2.48,21.421,4.8,31.76h70.864l58.049,58.049v99.579
		C162.702,447.902,194.197,455,227.351,455c7.337,0,14.588-0.361,21.747-1.04v-89.122
		C221.952,358.108,201.772,333.535,201.772,304.337z"/>
	<path d="M377.282,56.407v57.557h-42.845c-3.351,1.074-6.409,4.962-6.409,8.391v29.656h-54.256v30h123.812v90H264.098
		c-17.825,0-32.326,14.501-32.326,32.326s14.501,32.326,32.326,32.326h15v112.421C379.811,425.657,454.851,335.344,454.851,227.5
		C454.851,159.292,424.826,98.104,377.282,56.407z"/>
</g>
<g>
</g>
<g>
</g>
<g>
</g>
<g>
</g>
<g>
</g>
<g>
</g>
<g>
</g>
<g>
</g>
<g>
</g>
<g>
</g>
<g>
</g>
<g>
</g>
<g>
</g>
<g>
</g>
<g>
</g>
</svg>
