<svg id="Capa_1" enable-background="new 0 0 512 512" height="512" viewBox="0 0 512 512" width="512" xmlns="http://www.w3.org/2000/svg"><g><path d="m61.27 188.349c10.887 0 21.854-2.44 31.714-7.057l3.268-1.53c20.867-9.771 36.305-29.033 41.297-51.526 4.973-22.407 16.832-42.124 34.293-57.02s38.802-23.497 61.712-24.875l17.53-1.054c21.912-1.318 42.052-12.132 55.256-29.669l6.936-9.213c-18.575-4.227-37.758-6.405-57.276-6.405-68.38 0-132.667 26.629-181.019 74.981-31.965 31.965-54.426 70.896-65.986 113.368z"/><path d="m475.643 291.8c-14.057-5.939-29.499-5.843-43.48.27-13.982 6.114-24.536 17.386-29.719 31.739l-18.676 51.719c-13.28 36.776-47.004 63.014-85.917 66.844-3.362.331-6.723.495-10.064.495-26.554 0-52.084-10.332-71.271-29.123l-52.908-51.816c-20.663-20.236-29.581-49.243-23.856-77.593 6.906-34.202 33.535-60.417 67.841-66.785l11.345-2.106c15.276-2.836 28.706-12.053 36.844-25.289l20.441-33.243c12.961-21.079 34.404-35.441 58.831-39.403l10.569-1.714c26.789-4.345 46.233-27.196 46.233-54.336v-22.534c-15.128-9.508-31.156-17.354-47.855-23.453l-13.693 18.188c-18.5 24.573-46.72 39.725-77.422 41.572l-17.53 1.054c-33.148 1.994-61.324 26.029-68.52 58.448-6.994 31.516-28.625 58.505-57.861 72.195l-3.268 1.53c-13.817 6.469-29.182 9.889-44.437 9.889h-58.535c-1.81 12.359-2.735 24.934-2.735 37.652 0 29.363 4.924 57.966 14.356 84.881 43.13-8.008 87.718 9.082 114.344 44.982 10.451 14.09 17.671 30.654 20.881 47.902l6.676 35.871c1.707 9.173 4.86 17.898 9.368 26.009 28.503 10.735 59.005 16.355 90.375 16.355 68.38 0 132.667-26.629 181.019-74.981 36.547-36.547 60.672-82.201 70.279-131.842z"/><path d="m120.087 439.253c-2.38-12.789-7.734-25.071-15.483-35.519-18.4-24.808-48.363-37.503-78.236-34.314 12.233 24.711 28.545 47.531 48.613 67.598 15.834 15.834 33.385 29.321 52.221 40.324-.152-.738-.302-1.477-.44-2.219z"/><path d="m421.856 60.987v.474c0 20.175-7.2 39.748-20.274 55.113s-31.242 25.606-51.157 28.836l-10.569 1.714c-15.81 2.564-29.689 11.86-38.078 25.503l-20.441 33.243c-12.574 20.449-33.322 34.689-56.924 39.071l-11.345 2.106c-22.205 4.122-39.44 21.089-43.91 43.226-3.705 18.35 2.067 37.124 15.441 50.222l52.908 51.816c15.245 14.932 36.167 22.298 57.405 20.206 27.464-2.704 51.266-21.222 60.639-47.178l18.676-51.719c8.008-22.175 24.314-39.59 45.917-49.037 21.604-9.446 45.46-9.594 67.178-.417l24.03 10.154c.426-6.069.65-12.177.65-18.321 0-68.38-26.629-132.667-74.981-181.019-4.895-4.892-9.958-9.55-15.165-13.993z"/></g></svg>